<svg xmlns="http://www.w3.org/2000/svg" width="128.998" height="24" viewBox="0 0 128.998 24">
  <g id="Group_274" data-name="Group 274" transform="translate(-840 213)">
    <g id="Group_272" data-name="Group 272" transform="translate(540.959 -293.205)">
      <path id="Path_905" data-name="Path 905" d="M311.095,80.205a11.987,11.987,0,1,0,12.054,11.986,12.021,12.021,0,0,0-12.054-11.986m0,5.283a6.7,6.7,0,1,1-6.741,6.7,6.73,6.73,0,0,1,6.741-6.7" transform="translate(0)" fill="#f60"/>
      <path id="Path_906" data-name="Path 906" d="M680.688,80.205a11.987,11.987,0,1,0,12.054,11.986,12.021,12.021,0,0,0-12.054-11.986m0,5.283a6.7,6.7,0,1,1-6.741,6.7,6.73,6.73,0,0,1,6.741-6.7" transform="translate(-264.702)" fill="#f60"/>
      <path id="Path_907" data-name="Path 907" d="M497.717,105.79A11.494,11.494,0,0,1,486.2,94.343V82.418h5.517V94.343a6,6,0,0,0,11.994,0V82.418h5.515V94.343a11.494,11.494,0,0,1-11.513,11.447" transform="translate(-134.046 -1.585)" fill="#f60"/>
      <path id="Path_908" data-name="Path 908" d="M414.467,95.823l-.4.517a7.2,7.2,0,0,1-5.787,2.82,6.952,6.952,0,0,1-.19-13.9,7,7,0,0,1,4.951,2.09l.446.443L417.09,84l-.436-.419a12.2,12.2,0,0,0-8.534-3.321c-7.013,0-12.3,5.137-12.3,11.949s5.316,11.949,12.365,11.949a12.289,12.289,0,0,0,9.794-4.454l.356-.45Z" transform="translate(-69.312 -0.039)" fill="#f60"/>
      <path id="Path_909" data-name="Path 909" d="M599.742,95.823l-.4.517a7.2,7.2,0,0,1-5.787,2.82,6.952,6.952,0,0,1-.19-13.9,7,7,0,0,1,4.951,2.09l.445.443,3.6-3.791-.435-.419a12.2,12.2,0,0,0-8.536-3.321c-7.013,0-12.3,5.137-12.3,11.949s5.315,11.949,12.364,11.949a12.291,12.291,0,0,0,9.794-4.454l.356-.45Z" transform="translate(-202.006 -0.039)" fill="#f60"/>
    </g>
  </g>
</svg>
